<svg version="1" xmlns="http://www.w3.org/2000/svg" width="938.667" height="938.667" viewBox="0 0 704.000000 704.000000"><path d="M342.7 117.6c-.1.1-4.2.5-9.2.8-4.9.3-10.1.8-11.5 1-1.4.3-4.5.7-7 1-5.7.8-9.4 1.5-14.5 2.7-2.2.5-4.9 1.1-6 1.3-5.1.8-27.5 7.9-29.9 9.4-.6.4-1.3.7-1.6.8-2.9.6-20 9-27.9 13.6-3.4 2.1-6.7 3.8-7.1 3.8-.5 0-1 .3-1.2.7-.1.5-3 2.6-6.3 4.8-3.3 2.2-6.2 4.2-6.5 4.5-.3.3-2.5 2.1-5 4-10.5 8.1-28.8 26-38.6 38-9.3 11.3-21.2 29.4-26.8 40.6-4.5 9.2-7.7 16.1-8.2 17.9-.1.5-1.7 4.8-3.3 9.5-1.7 4.7-3.3 9.4-3.6 10.5-.2 1.1-1.5 6.5-2.9 12-1.3 5.5-2.8 12.5-3.1 15.5-.4 3-.9 5.8-1.1 6.2-2.3 3.7-2.2 59.8.1 69.8.3 1.4.8 4.1.9 6 .4 4.2 3 15.9 5.5 25 5.2 18.8 16.4 43.5 27.1 60 3.4 5.2 6.6 9.7 6.9 10 .4.3 1.9 2.2 3.3 4.3 5 7.5 20.9 24.5 33.8 36.2 6.4 5.8 21.8 17.5 23 17.5.5 0 1 .4 1 .8 0 .5 1.7 1.7 3.8 2.8 2 1 3.9 2.2 4.2 2.5.6.6 15.2 8.8 19 10.6 7.7 3.6 14 6.3 14.5 6.3.4 0 2.1.7 3.8 1.5 13.2 6 46.7 13.1 66.3 13.9 3.3.2 6.6.6 7.2 1 .7.4 1.2.2 1.2-.4 0-.6.5-.8 1-.5 1.3.8 13.8 1 14.6.2.3-.3 1.9-.1 3.5.3 1.6.5 2.9.6 2.9.2 0-.4 2.1-.7 4.8-.8 6.7-.1 24.5-2.1 27.2-3.1.8-.2 3.3-.7 5.4-1 2.2-.2 4.8-.9 5.8-1.4 1-.5 1.8-.7 1.8-.5 0 .3 1.1.1 2.5-.4s3.7-1.2 5.1-1.4c9.1-1.7 36.1-12.5 46.4-18.6.8-.5 4.4-2.6 8-4.6 3.6-2.1 7-4.2 7.5-4.6.6-.5 4.6-3.4 9-6.5 4.3-3.1 8.5-6.1 9.1-6.7.6-.6 3.1-2.7 5.5-4.6 5.7-4.6 23.3-22.2 28.4-28.4 2.2-2.7 4.7-5.7 5.5-6.6 1.5-1.5 14.9-20.9 17.7-25.5 9.1-15 21.2-44.5 23.9-58.5.3-1.4.9-4.1 1.4-6 1.3-5.1 3-14.2 3.6-19.5.1-1.7.6-5.9 1-9.5 1.5-12.7.9-48.1-1-59-.2-1.4-.7-4.3-1-6.5-1.5-10-4.6-23.2-7.8-33.5-2.7-8.5-11.9-30.4-13-30.8-.4-.2-.8-.9-.8-1.7 0-1.2-2.3-5.4-7.6-14-1.3-2.2-3-5-3.6-6.3-.6-1.2-1.5-2.2-2-2.2-.4 0-.8-.5-.8-1.1 0-.9-6.4-9.7-14.5-19.8-2.1-2.7-27.1-27.6-30.1-30.1-6.3-5.2-15.6-12-16.3-12-.5 0-1.1-.4-1.3-.8-.3-.8-5.6-4.3-15.3-10.3-2.2-1.3-6.2-3.5-9-4.9-2.7-1.3-5.8-3.1-6.8-3.9-.9-.8-2-1.2-2.3-.8-.3.3-2.5-.5-4.7-1.7-5-2.8-27.4-10.5-35.2-12.1-10.1-2.2-22-4.3-27-4.9-8.9-1.1-41.1-2.6-41.8-2z"/></svg>